<svg width="36" height="36" viewBox="0 0 36 36" fill="none" xmlns="http://www.w3.org/2000/svg">
<rect x="0.0976562" width="33.84" height="35.9535" rx="10" fill="#1194FF"/>
<path d="M10.303 20.86L10.2954 20.8511L10.2876 20.8424L7.54539 17.7547C6.79721 16.9123 6.22016 15.9663 5.84303 14.964L5.2117 13.2862C4.5715 11.5847 4.8569 9.77482 5.98119 8.40646L6.07796 8.28868C6.22171 8.11372 6.38352 7.9515 6.56153 7.80389L7.01512 7.42774C8.40381 6.27616 10.6587 6.38314 12.1073 7.66932L13.0273 8.4862C14.098 9.43691 14.0921 10.937 13.0144 11.7378C11.403 12.9352 11.0462 15.0367 12.1594 16.7736L13.788 19.3147C14.5996 20.581 15.8333 21.6102 17.3043 22.2482L18.9677 22.9697C20.9955 23.8491 23.3352 23.481 24.718 22.0648C25.7252 21.0332 27.5589 21.0082 28.7734 22.0096L29.8306 22.8813C31.6818 24.4077 31.7963 26.9136 30.0796 28.3301L29.6971 28.6457C28.553 29.5897 26.8945 29.9045 25.3108 29.4783L22.2753 28.6615C21.7095 28.5092 21.1566 28.3123 20.6237 28.0732L16.036 26.0144C14.6004 25.3702 13.3396 24.4333 12.3651 23.2865L10.303 20.86Z" fill="#1194FF" stroke="white" stroke-width="2"/>
</svg>
